<?xml version="1.0" encoding="utf-8"?>
<!-- Generator: Adobe Illustrator 18.1.1, SVG Export Plug-In . SVG Version: 6.00 Build 0)  -->
<svg version="1.1" id="Layer_1" xmlns="http://www.w3.org/2000/svg" xmlns:xlink="http://www.w3.org/1999/xlink" x="0px" y="0px"
	 viewBox="302.9 537.3 2311.2 347.6" enable-background="new 302.9 537.3 2311.2 347.6" xml:space="preserve">
<g>
	<path fill="#010101" d="M487.7,649.6c13.9,9.9,24.8,24.8,30.8,42.7c7,18.9,9.9,39.7,9.9,63.6v5c0,38.7-7.9,68.5-22.8,90.4
		C489.7,873,466.8,884,435,884c-23.8,0-42.7-9.9-57.6-29.8l-3,24.8h-71.5V537.3h79.5v120.2c13.9-15.9,30.8-22.8,51.6-22.8
		C455.9,634.7,473.8,639.6,487.7,649.6z M442,714.1c-5-9.9-13.9-14.9-26.8-14.9c-14.9,0-25.8,5-31.8,15.9v91.4c3,5,7,8.9,11.9,11.9
		c5,2,11.9,4,19.9,4c9.9,0,16.9-2,21.9-7c5-5,7.9-10.9,9.9-18.9c1-7.9,2-18.9,2-32.8v-5C448.9,738,446,724.1,442,714.1z"/>
	<path fill="#010101" d="M776.7,854.2c2,7.9,4,15.9,7.9,21.9v4h-79.5c-3-5-5-11.9-7-20.9c-6,7.9-13.9,13.9-22.8,18.9
		c-8.9,4-20.9,7-34.8,7c-14.9,0-27.8-3-40.7-8.9c-12.9-6-22.8-14.9-29.8-25.8c-7-10.9-10.9-23.8-10.9-37.7
		c0-24.8,8.9-44.7,27.8-58.6c18.9-13.9,47.7-20.9,86.4-20.9h20.9v-10.9c0-9.9-2-16.9-6-21.9c-4-5-10.9-7.9-19.9-7.9
		c-7.9,0-13.9,2-17.9,6c-4,4-6,9.9-6,17.9h-79.5c0-15.9,4-29.8,12.9-42.7c8.9-11.9,20.9-21.9,37.7-28.8c15.9-7,34.8-9.9,56.6-9.9
		c19.9,0,36.7,3,52.6,9.9c15.9,7,27.8,16.9,36.7,29.8c8.9,12.9,12.9,28.8,12.9,47.7v95.3C774.7,833.3,774.7,846.2,776.7,854.2z
		 M681.3,822.4c6-3,9.9-7,12.9-10.9v-35.8h-22.8c-11.9,0-19.9,3-24.8,9.9c-5,7-7.9,13.9-7.9,22.8c0,5,2,9.9,6,12.9c4,3,8.9,5,15.9,5
		C668.4,826.4,675.4,825.4,681.3,822.4z"/>
	<path fill="#010101" d="M976.3,636.7l-1,78.5h-6c-8.9-1-14.9-1-18.9-1c-11.9,0-21.9,2-28.8,5c-7,3-12.9,7.9-15.9,14.9v147h-79.5
		V638.6h74.5l3,31.8c6-11.9,13.9-20.9,22.8-26.8c8.9-6,18.9-8.9,29.8-8.9C963.4,634.7,970.4,634.7,976.3,636.7z"/>
	<path fill="#010101" d="M1158.1,818.4V878c-12.9,5-27.8,7-43.7,7c-25.8,0-45.7-6-58.6-18.9c-12.9-11.9-19.9-31.8-19.9-57.6V696.2
		h-28.8v-57.6h28.8v-60.6h80.5v60.6h38.7v57.6h-38.7v99.3c0,6,1,10.9,2,13.9c1,3,4,6,7,7c3,1,7.9,2,14.9,2
		C1148.2,819.4,1154.1,819.4,1158.1,818.4z"/>
	<path fill="#010101" d="M1414.3,786.6h-147c3,10.9,8.9,18.9,17.9,24.8c8.9,6,18.9,8.9,31.8,8.9c10.9,0,20.9-2,30.8-5
		c9.9-4,17.9-8.9,24.8-17.9l35.8,46.7c-5,7-12.9,13.9-21.9,19.9c-8.9,6-19.9,10.9-32.8,14.9c-12.9,4-25.8,6-40.7,6
		c-25.8,0-48.7-5-67.5-15.9c-18.9-10.9-33.8-24.8-43.7-42.7c-9.9-17.9-14.9-37.7-14.9-58.6v-7.9c0-23.8,4-44.7,12.9-63.6
		c8.9-18.9,21.9-33.8,39.7-44.7c17.9-10.9,39.7-16.9,65.6-16.9c22.8,0,42.7,5,58.6,13.9c16.9,8.9,29.8,22.8,38.7,40.7
		c8.9,17.9,13.9,38.7,13.9,63.6v33.8H1414.3z M1302.1,699.2c-10.9,0-18.9,3-24.8,9.9s-8.9,15.9-10.9,26.8h69.5v-7
		C1336.9,709.2,1325.9,699.2,1302.1,699.2z"/>
	<path fill="#010101" d="M1554.4,794.6l-19.9,19.9V881h-80.5V537.3h80.5v176.8l5-7l54.6-68.5h95.3L1606,738l88.4,142h-91.4
		L1554.4,794.6z"/>
	<path fill="#010101" d="M1789.8,805.5c7,4,11.9,8.9,15.9,14.9c4,6,6,12.9,6,20.9c0,7.9-2,14.9-6,20.9c-4,6-8.9,10.9-15.9,14.9
		c-7,4-13.9,6-22.8,6c-8.9,0-15.9-2-22.8-6s-11.9-8.9-15.9-14.9c-4-6-6-12.9-6-20.9s2-14.9,6-20.9c4-6,8.9-10.9,15.9-14.9
		c7-4,13.9-5,22.8-5S1782.8,801.5,1789.8,805.5z"/>
	<path fill="#12B24B" d="M2086.8,537.3V880h-71.5l-4-26.8c-14.9,20.9-34.8,30.8-57.6,30.8c-19.9,0-36.7-5-50.7-15.9
		c-13.9-9.9-24.8-24.8-31.8-43.7c-7-18.9-10.9-39.7-10.9-63.6v-5c0-24.8,4-46.7,10.9-65.6c7-18.9,17.9-32.8,31.8-42.7
		s30.8-14.9,51.6-14.9c20.9,0,38.7,8.9,52.6,25.8V537.3H2086.8z M1993.4,815.4c6-3,9.9-7.9,12.9-12.9v-85.4
		c-6-12.9-16.9-18.9-32.8-18.9c-22.8,0-33.8,19.9-33.8,59.6v5c0,17.9,3,32.8,7.9,42.7c5,9.9,13.9,14.9,25.8,14.9
		C1981.5,820.4,1988.4,819.4,1993.4,815.4z"/>
	<path fill="#12B24B" d="M2359.9,786.6h-147c3,10.9,8.9,18.9,17.9,24.8s18.9,8.9,31.8,8.9c10.9,0,20.9-2,30.8-5
		c9.9-3,17.9-8.9,24.8-17.9l35.8,46.7c-5,7-12.9,13.9-21.9,19.9s-19.9,10.9-32.8,14.9c-12.9,4-25.8,6-40.7,6
		c-25.8,0-48.7-5-67.5-15.9c-18.9-10.9-33.8-24.8-43.7-42.7s-14.9-37.7-14.9-58.6v-7.9c0-23.8,4-44.7,12.9-63.6
		c8.9-18.9,21.9-33.8,39.7-44.7s39.7-16.9,65.6-16.9c22.8,0,42.7,5,58.6,13.9c16.9,8.9,29.8,22.8,38.7,40.7
		c8.9,17.9,13.9,38.7,13.9,63.6v33.8H2359.9z M2248.7,699.2c-10.9,0-18.9,3-24.8,9.9s-8.9,15.9-10.9,26.8h69.5v-7
		C2282.4,709.2,2271.5,699.2,2248.7,699.2z"/>
	<path fill="#12B24B" d="M2614.2,638.6L2536.7,880H2487h-33.8l-77.5-241.4h84.4l34.8,145l34.8-145H2614.2L2614.2,638.6z"/>
</g>
</svg>
